<svg width="19" height="19" viewBox="0 0 19 19" fill="none" xmlns="http://www.w3.org/2000/svg">
<path d="M15.75 3.87506H12C11.337 3.87506 10.7011 4.13845 10.2322 4.60729C9.76339 5.07613 9.5 5.71202 9.5 6.37506V15.1251C9.5 14.6278 9.69754 14.1509 10.0492 13.7992C10.4008 13.4476 10.8777 13.2501 11.375 13.2501H15.75V3.87506Z" stroke="#00873A" stroke-width="1.25" stroke-linecap="round" stroke-linejoin="round"/>
<path d="M3.25 3.87506H7C7.66304 3.87506 8.29893 4.13845 8.76777 4.60729C9.23661 5.07613 9.5 5.71202 9.5 6.37506V15.1251C9.5 14.6278 9.30246 14.1509 8.95083 13.7992C8.59919 13.4476 8.12228 13.2501 7.625 13.2501H3.25V3.87506Z" stroke="#00873A" stroke-width="1.25" stroke-linecap="round" stroke-linejoin="round"/>
</svg>
