<svg width="19" height="20" viewBox="0 0 19 20" fill="none" xmlns="http://www.w3.org/2000/svg">
<circle cx="9.43498" cy="9.57011" r="3.14533" fill="#F9FCF8" stroke="#00873A" stroke-width="0.786333"/>
<circle cx="9.43751" cy="9.5702" r="1.57267" fill="#F9FCF8" stroke="#00B54E" stroke-width="0.786333"/>
<path d="M4.83105 5.74268C5.12297 5.69759 5.43135 5.76125 5.69238 5.94775C5.955 6.13541 6.11932 6.41273 6.17676 6.7124C5.88507 6.75726 5.57721 6.69464 5.31641 6.5083C5.05346 6.32033 4.8882 6.04286 4.83105 5.74268Z" fill="#00B54E" stroke="#00B54E" stroke-width="0.571878"/>
<path d="M3.74674 7.70272C4.01704 7.58362 4.3314 7.5653 4.6318 7.67788C4.93404 7.79118 5.16454 8.01651 5.29758 8.29111C5.02743 8.40993 4.71386 8.42913 4.41371 8.31664C4.11108 8.20312 3.87963 7.97788 3.74674 7.70272Z" fill="#00B54E" stroke="#00B54E" stroke-width="0.571878"/>
<path d="M3.57762 10.1056C3.76663 9.87858 4.03995 9.72222 4.35906 9.68928C4.68013 9.65617 4.98685 9.75531 5.22823 9.94196C5.03924 10.1686 4.76701 10.3254 4.44817 10.3583C4.12665 10.3914 3.81912 10.2928 3.57762 10.1056Z" fill="#00B54E" stroke="#00B54E" stroke-width="0.571878"/>
<path d="M3.94734 12.3594C4.04115 12.0793 4.23915 11.8345 4.52458 11.6881C4.81178 11.5407 5.13357 11.5219 5.42622 11.6083C5.33231 11.8881 5.13548 12.1329 4.85029 12.2792C4.56266 12.4267 4.2403 12.4463 3.94734 12.3594Z" fill="#00B54E" stroke="#00B54E" stroke-width="0.571878"/>
<path d="M5.12605 13.9321C5.21986 13.652 5.41786 13.4071 5.70329 13.2607C5.99049 13.1134 6.31228 13.0945 6.60493 13.1809C6.51102 13.4607 6.31419 13.7056 6.029 13.8519C5.74137 13.9993 5.41901 14.0189 5.12605 13.9321Z" fill="#00B54E" stroke="#00B54E" stroke-width="0.571878"/>
<path d="M8.10721 13.9328C7.86169 14.097 7.67758 14.3524 7.61143 14.6663C7.54489 14.9822 7.61139 15.2976 7.77175 15.5572C8.01695 15.393 8.20138 15.1386 8.26748 14.825C8.33404 14.5087 8.26813 14.1925 8.10721 13.9328Z" fill="#00B54E" stroke="#00B54E" stroke-width="0.571878"/>
<path d="M9.7475 13.8771C9.6305 14.1483 9.61461 14.4628 9.72951 14.7623C9.84515 15.0636 10.0723 15.2924 10.3479 15.4233C10.4646 15.1522 10.4814 14.8385 10.3666 14.5393C10.2507 14.2375 10.0237 14.0078 9.7475 13.8771Z" fill="#00B54E" stroke="#00B54E" stroke-width="0.571878"/>
<path d="M11.716 13.4209C11.6682 13.7124 11.7291 14.0213 11.9133 14.284C12.0986 14.5483 12.3744 14.7152 12.6735 14.7753C12.721 14.484 12.6612 14.1756 12.4772 13.9131C12.2916 13.6485 12.0156 13.4808 11.716 13.4209Z" fill="#00B54E" stroke="#00B54E" stroke-width="0.571878"/>
<path d="M12.975 12.3C13.0427 12.5875 13.2174 12.8495 13.4882 13.0215C13.7607 13.1945 14.0794 13.2428 14.3787 13.1837C14.3109 12.8964 14.1374 12.6346 13.8668 12.4627C13.5939 12.2895 13.2747 12.2404 12.975 12.3Z" fill="#00B54E" stroke="#00B54E" stroke-width="0.571878"/>
<path d="M13.7987 11.0418C13.9597 11.2895 14.2127 11.4769 14.5257 11.5472C14.8406 11.6179 15.1569 11.5556 15.4186 11.3987C15.2576 11.1514 15.0057 10.9636 14.693 10.8933C14.3776 10.8226 14.0606 10.8843 13.7987 11.0418Z" fill="#00B54E" stroke="#00B54E" stroke-width="0.571878"/>
<path d="M13.7853 9.25813C14.0178 9.44033 14.3179 9.53575 14.6368 9.50088C14.9577 9.46578 15.2367 9.30439 15.4335 9.07117C15.2011 8.88929 14.902 8.79321 14.5833 8.82805C14.262 8.86326 13.9821 9.02434 13.7853 9.25813Z" fill="#00B54E" stroke="#00B54E" stroke-width="0.571878"/>
<path d="M13.3565 7.73299C13.625 7.85604 13.9391 7.87896 14.2411 7.77078C14.5449 7.66192 14.7787 7.43999 14.9157 7.16736C14.6474 7.0446 14.3341 7.02082 14.0324 7.1289C13.7281 7.23797 13.4934 7.45981 13.3565 7.73299Z" fill="#00B54E" stroke="#00B54E" stroke-width="0.571878"/>
<path d="M6.74876 4.20891C7.0424 4.24092 7.3238 4.38223 7.52766 4.62993C7.73276 4.87917 7.81971 5.18956 7.79763 5.49389C7.50427 5.46172 7.22311 5.32156 7.01942 5.07407C6.81408 4.82444 6.72627 4.51365 6.74876 4.20891Z" fill="#00B54E" stroke="#00B54E" stroke-width="0.571878"/>
<path d="M8.97158 3.3178C9.21243 3.48879 9.38934 3.74928 9.44671 4.06492C9.50442 4.38249 9.42915 4.69593 9.26161 4.95094C9.02108 4.77994 8.84382 4.52057 8.78649 4.2052C8.72877 3.88718 8.80348 3.57298 8.97158 3.3178Z" fill="#00B54E" stroke="#00B54E" stroke-width="0.571878"/>
<path d="M11.5268 3.66855C11.6622 3.93108 11.6997 4.24373 11.6056 4.55044C11.511 4.85903 11.3002 5.10285 11.0342 5.25239C10.8991 4.99 10.8608 4.67819 10.9548 4.37174C11.0496 4.06274 11.2603 3.81798 11.5268 3.66855Z" fill="#00B54E" stroke="#00B54E" stroke-width="0.571878"/>
<path d="M13.5633 5.2489C13.5607 5.54426 13.4481 5.83832 13.2219 6.06582C12.9943 6.2947 12.6941 6.4121 12.3891 6.4204C12.3919 6.1253 12.5034 5.83159 12.7294 5.60429C12.9574 5.37514 13.2579 5.25684 13.5633 5.2489Z" fill="#00B54E" stroke="#00B54E" stroke-width="0.571878"/>
</svg>
