<svg width="130" height="39" viewBox="0 0 130 39" fill="none" xmlns="http://www.w3.org/2000/svg">
<path d="M10.5522 30.6929C10.5799 30.85 10.6203 31.0094 10.6483 31.167C11.8589 36.2168 16.8792 39.7068 22.2935 38.8826C27.1712 38.1457 30.8276 33.8147 31.0165 29.0737C31.3581 29.009 31.7144 28.9338 32.0602 28.8444C37.0695 27.4744 40.3953 22.3534 39.4013 16.9648C38.5412 12.312 34.4184 8.89057 29.9 8.58158C29.8774 8.47563 29.867 8.37195 29.8443 8.26645C28.6829 3.05791 23.548 -0.436425 18.198 0.384644C13.2418 1.1356 9.6283 5.43476 9.44815 10.2022C9.15995 10.2492 8.85571 10.3195 8.56387 10.3911C3.39569 11.712 0.0636994 16.9604 1.0547 22.2842C1.93023 27.0032 6.00876 30.3798 10.5522 30.6929ZM28.3933 29.6071C28.0214 32.9912 25.4224 35.7013 22.1874 36.31C18.8093 36.9362 15.5185 35.4148 13.8491 32.4326C13.505 31.8193 13.2669 31.1829 13.1072 30.5329C13.4237 30.4649 13.7535 30.3984 14.0614 30.3034C18.3816 29.0108 21.2013 25.4125 21.5015 20.9567C24.4118 21.246 27.2999 23.3344 28.1714 26.6083C26.7075 26.3921 25.2799 25.7592 24.079 24.7124C23.9203 24.5742 23.7603 24.448 23.5874 24.3203C23.2222 25.1484 22.8803 25.9035 22.5117 26.7567C24.3543 28.2178 26.314 29.0571 28.4113 29.2259C28.4056 29.3529 28.4118 29.4816 28.3933 29.6071ZM36.8427 17.1495C37.5872 20.5067 36.1601 23.8503 33.229 25.6036C32.458 26.0649 31.6319 26.3776 30.776 26.5451C30.7601 26.4789 30.7552 26.4273 30.7393 26.361C29.6068 21.8214 26.0584 18.7531 21.5081 18.4007C21.6855 15.2948 23.9167 12.1343 27.5119 11.3354C27.4632 11.7503 27.4023 12.163 27.3002 12.5953C26.9497 14.1033 26.0906 15.3319 24.9715 16.4194C25.8083 16.8112 26.5719 17.18 27.3484 17.5503C27.3896 17.5307 27.4307 17.5112 27.4595 17.4898C27.5043 17.4455 27.5496 17.4009 27.5963 17.3439C29.1505 15.4768 29.9918 13.4148 30.1024 11.1937C33.419 11.5047 36.1476 13.9786 36.8427 17.1495ZM16.5969 3.52335C19.5647 2.21012 22.4319 2.62045 24.9008 4.77472C26.2261 5.92941 27.0266 7.2622 27.3683 8.75722C27.1176 8.80975 26.8668 8.86227 26.627 8.92901C22.1566 10.1995 19.2082 13.8039 18.9613 18.3315C16.0688 18.007 13.1756 15.9561 12.2876 12.7055C12.5131 12.7388 12.7381 12.772 12.9614 12.8176C14.4767 13.1183 15.7232 13.9414 16.8537 15.0291C17.2209 14.1882 17.5679 13.3956 17.9135 12.6155C17.8939 12.5744 17.8743 12.5332 17.8406 12.5026C17.7959 12.4577 17.7389 12.4111 17.6947 12.3658C15.9391 11.0072 14.0593 10.231 12.0354 10.0856C12.2324 7.02083 13.7936 4.75828 16.5969 3.52335ZM4.23509 23.7767C2.82686 20.8457 3.14811 17.9784 5.22404 15.4336C6.47261 13.9052 7.98274 13.0284 9.67815 12.7162C9.70938 12.8491 9.7393 12.9939 9.77104 13.1264C10.938 17.5176 14.4799 20.4567 18.9584 20.8624C18.7308 23.9614 16.5447 27.1667 12.9262 27.9496C13.0966 26.2742 13.8089 24.6535 15.0421 23.3141C15.1789 23.1683 15.3066 22.9954 15.4575 22.8386C14.6459 22.4501 13.8945 22.0835 13.0468 21.6771C11.3902 23.6317 10.4625 25.7574 10.3498 28.0804C7.58559 27.8383 5.47676 26.3636 4.23509 23.7767Z" fill="#D3D3D3"/>
<path d="M54.1257 28.3555C53.0254 28.3555 52.102 28.1787 51.3554 27.825C50.6088 27.4714 49.9998 27.0097 49.5282 26.4399C49.0665 25.8603 48.7129 25.2316 48.4673 24.5538C48.2217 23.8759 48.0547 23.2129 47.9663 22.5645C47.8779 21.9161 47.8337 21.3464 47.8337 20.8552V12.014H50.9576V19.8385C50.9576 20.4574 51.0067 21.0959 51.1049 21.7541C51.213 22.4024 51.4095 23.0066 51.6943 23.5665C51.989 24.1264 52.3967 24.5783 52.9174 24.9222C53.4478 25.266 54.1355 25.4379 54.9803 25.4379C55.5304 25.4379 56.0511 25.3495 56.5423 25.1727C57.0334 24.986 57.4608 24.6913 57.8242 24.2885C58.1975 23.8858 58.4873 23.3553 58.6936 22.6971C58.9097 22.0389 59.0178 21.2383 59.0178 20.2953L60.9334 21.0173C60.9334 22.4614 60.6632 23.7384 60.1229 24.8485C59.5826 25.9487 58.8066 26.8083 57.7948 27.4272C56.7829 28.046 55.5599 28.3555 54.1257 28.3555ZM59.3862 27.9282V23.3307H59.0178V12.014H62.1269V27.9282H59.3862Z" fill="#D3D3D3"/>
<path d="M74.4968 14.4895V12.014H78.6227V14.4895H74.4968ZM67.7185 27.9282V11.4541C67.7185 11.0513 67.7333 10.624 67.7627 10.1721C67.7922 9.71039 67.8757 9.25851 68.0132 8.81645C68.1606 8.36457 68.4013 7.95198 68.7353 7.57869C69.138 7.13663 69.5801 6.82227 70.0614 6.63562C70.5428 6.44898 71.0192 6.34092 71.4908 6.31145C71.9721 6.28198 72.4142 6.26724 72.8169 6.26724H74.821V8.80172H72.9643C72.2374 8.80172 71.6922 8.98345 71.3287 9.34692C70.975 9.70057 70.7982 10.2065 70.7982 10.8647V27.9282H67.7185ZM65.0809 14.4895V12.014H74.821V14.4895H65.0809ZM78.4311 27.9282V6.26724H81.5108V27.9282H78.4311Z" fill="#D3D3D3"/>
<path d="M88.0965 35.0011L91.1762 26.6167L91.2204 29.0922L84.2801 12.014H87.4924L92.6792 25.2021H91.7362L96.6872 12.014H99.8111L91.0289 35.0011H88.0965Z" fill="#D3D3D3"/>
<path d="M112.406 27.9282C111.404 28.1246 110.422 28.2081 109.459 28.1787C108.496 28.1492 107.637 27.9625 106.88 27.6187C106.124 27.2749 105.554 26.7346 105.171 25.9978C104.827 25.3397 104.64 24.6717 104.611 23.9938C104.591 23.3062 104.581 22.5301 104.581 21.6656V7.59342H107.676V21.5183C107.676 22.1568 107.681 22.7119 107.691 23.1834C107.71 23.6549 107.813 24.0528 108 24.3769C108.354 24.986 108.914 25.3347 109.68 25.4232C110.456 25.5017 111.365 25.4674 112.406 25.32V27.9282ZM101.531 14.4895V12.014H112.406V14.4895H101.531Z" fill="#D3D3D3"/>
<path d="M122.1 28.3702C120.518 28.3702 119.128 28.0264 117.93 27.3387C116.741 26.6413 115.813 25.6737 115.145 24.4359C114.487 23.1883 114.158 21.7442 114.158 20.1037C114.158 18.3649 114.482 16.857 115.13 15.58C115.788 14.3029 116.702 13.3156 117.871 12.6182C119.04 11.9207 120.4 11.572 121.953 11.572C123.573 11.572 124.954 11.9502 126.093 12.7066C127.233 13.4532 128.082 14.519 128.642 15.9041C129.212 17.2893 129.438 18.9347 129.32 20.8405H126.241V19.7206C126.221 17.8738 125.867 16.5083 125.18 15.6242C124.502 14.74 123.465 14.298 122.07 14.298C120.528 14.298 119.369 14.7843 118.593 15.7568C117.817 16.7293 117.429 18.1341 117.429 19.9711C117.429 21.7197 117.817 23.0753 118.593 24.038C119.369 24.9909 120.489 25.4674 121.953 25.4674C122.915 25.4674 123.745 25.2512 124.443 24.819C125.15 24.3769 125.7 23.7482 126.093 22.9329L129.114 23.8907C128.495 25.3151 127.557 26.4202 126.299 27.2061C125.042 27.9822 123.642 28.3702 122.1 28.3702ZM116.427 20.8405V18.4386H127.788V20.8405H116.427Z" fill="#D3D3D3"/>
</svg>
